<svg version="1.1" id="Layer_1" xmlns="http://www.w3.org/2000/svg" xmlns:xlink="http://www.w3.org/1999/xlink" x="0px" y="0px"
	 width="100%" viewBox="0 0 1000 188" enable-background="new 0 0 1000 188" xml:space="preserve">

M434.005829,50.456825 
	C432.656677,66.459892 431.307526,82.462967 429.896729,99.197235 
	C419.728790,100.271675 409.612549,101.340660 398.525085,102.512268 
	C399.030731,92.381432 399.554657,83.187515 399.920929,73.987328 
	C400.099609,69.498947 399.935364,64.997940 400.021027,60.504452 
	C400.069794,57.948017 399.946777,55.761528 396.451294,55.983303 
	C392.853546,56.211575 393.043915,58.860039 393.031036,61.245914 
	C392.974365,71.739716 393.070953,82.234680 392.959900,92.727615 
	C392.932617,95.305191 392.634277,97.972977 391.857941,100.407120 
	C391.511597,101.493088 389.691345,102.770149 388.510620,102.800034 
	C385.444397,102.877655 382.367737,102.210922 379.284180,102.032402 
	C376.353882,101.862755 373.210632,102.300995 373.135437,105.948906 
	C373.057800,109.715576 376.260925,110.074127 379.184326,109.969688 
	C383.364563,109.820343 387.538879,109.505096 392.114471,109.237366 
	C391.280090,121.942291 390.464142,134.366455 389.646851,146.811157 
	C396.975220,147.029144 396.923157,147.021942 397.007721,140.832626 
	C397.156067,129.977325 397.384735,119.123123 397.575989,108.479362 
	C408.565155,107.421616 418.604858,106.455254 429.586975,105.398178 
	C428.552582,113.581451 427.478088,121.795219 426.496979,130.020126 
	C426.205048,132.467377 425.743683,135.027832 426.190277,137.378662 
	C426.449249,138.741684 428.219727,140.454163 429.580048,140.744629 
	C430.468079,140.934250 432.712006,138.959885 432.855042,137.774658 
	C433.795105,129.984619 434.567108,122.156494 434.927856,114.319351 
	C435.285126,106.558441 435.606750,105.789528 442.871979,103.614487 
	C443.164185,103.527000 443.425232,103.273666 443.655273,103.050613 
	C444.763641,101.975983 445.856323,100.885216 446.954590,99.800186 
	C445.367767,98.868286 443.873688,97.505310 442.165466,97.137917 
	C440.743164,96.832031 439.069458,97.695084 436.695557,98.219742 
	C437.148102,92.111794 437.517548,86.416718 438.004669,80.731728 
	C438.605438,73.720337 439.384857,66.723671 439.935730,59.708767 
	C440.399628,53.801895 440.819855,47.879078 440.855988,41.960850 
	C440.863953,40.651340 439.175049,39.331474 438.267487,38.016369 
	C436.982574,39.045334 434.903748,39.871243 434.577850,41.145493 
	C433.897125,43.807030 434.141693,46.705227 434.005829,50.456825 
M549.989685,101.214409 
	C549.656250,94.793777 549.783203,88.300034 548.780518,81.985680 
	C548.330383,79.151093 546.158325,75.274460 543.807068,74.371246 
	C540.436035,73.076302 537.949463,76.333893 535.863770,79.395935 
	C528.865173,89.670494 525.782532,101.546150 521.551147,112.956841 
	C520.596680,115.530540 519.824280,118.171730 518.968140,120.781845 
	C517.509766,107.230064 516.884644,93.925209 515.881104,80.648956 
	C515.673462,77.903351 514.058655,75.264130 513.092407,72.575874 
	C512.337524,72.641640 511.582611,72.707405 510.827728,72.773170 
	C510.220154,74.767372 509.004761,76.796021 509.115448,78.749519 
	C509.494629,85.440407 510.532715,92.092445 510.964020,98.782219 
	C511.736450,110.763535 512.250366,122.761513 512.860352,134.520996 
	C517.056946,135.973175 518.845215,134.202377 519.988831,130.948242 
	C523.612122,120.638428 527.013733,110.232704 531.134460,100.122192 
	C533.799500,93.583374 535.794067,86.376915 543.091248,81.030685 
	C543.488708,83.765556 544.000122,85.547592 543.964661,87.318687 
	C543.706055,100.239517 543.260132,113.157326 543.122864,126.078743 
	C543.109131,127.374092 544.846558,129.813995 545.613525,129.752579 
	C547.116760,129.632233 549.380005,128.414551 549.806641,127.141060 
	C552.756653,118.337105 555.000671,109.290260 558.107300,100.547386 
	C560.203064,94.649422 563.337891,89.120689 566.362183,82.671158 
	C567.950378,84.574020 568.769653,85.120110 568.932617,85.819206 
	C570.356506,91.926399 572.357056,98.007202 572.836792,104.200378 
	C573.504028,112.815170 572.866394,121.524910 573.156372,130.181656 
	C573.199951,131.481384 575.249146,132.713943 576.370544,133.977570 
	C577.247253,132.841949 578.838440,131.733109 578.882202,130.566269 
	C579.126282,124.054474 579.567993,117.465324 578.855042,111.022911 
	C577.862671,102.054726 578.919861,92.578644 573.964844,84.394440 
	C572.492615,81.962822 570.164001,78.598236 568.013428,78.431801 
	C565.806213,78.260994 562.230957,80.982376 561.183594,83.307137 
	C557.657104,91.134476 555.004211,99.354210 551.977722,107.409042 
	C551.483521,108.724434 550.790161,109.965012 550.188904,111.240173 
	C549.704407,111.066277 549.219849,110.892387 548.735352,110.718498 
	C549.152222,107.860794 549.569092,105.003090 549.989685,101.214409 
M206.038544,105.650215 
	C208.577530,101.211304 211.116516,96.772385 213.693344,92.267326 
	C214.159607,93.443047 214.783752,94.457672 214.957886,95.544403 
	C216.371521,104.366447 217.286301,113.290329 219.144958,122.014458 
	C222.663467,138.529449 214.798630,151.729935 201.220520,158.954437 
	C198.388214,160.461426 195.313370,161.512527 192.480835,163.019119 
	C191.539459,163.519852 190.349640,164.875443 190.456436,165.683899 
	C190.584564,166.653641 191.840668,167.929611 192.854218,168.222733 
	C194.463104,168.688034 196.460770,168.953613 197.964355,168.403214 
	C201.223862,167.210022 204.473724,165.751358 207.371994,163.857254 
	C214.740936,159.041428 220.799469,152.877563 223.933823,144.487640 
	C228.561691,132.099915 225.463623,119.628700 223.595490,107.262146 
	C222.396378,99.324387 220.635468,91.465591 218.918930,83.616776 
	C218.565125,81.999008 217.291855,80.582336 216.442383,79.072968 
	C214.961670,80.274574 212.995392,81.197960 212.111069,82.741295 
	C210.690948,85.219734 210.088699,88.151482 208.961395,90.815742 
	C204.536407,101.273682 198.770462,110.929314 190.423355,118.703667 
	C188.290359,120.690285 183.803558,123.038353 182.178207,122.108604 
	C178.212189,119.839935 179.902969,115.383873 180.860641,111.507797 
	C183.023468,102.754074 187.824936,95.544044 193.639801,88.920586 
	C199.844147,81.853493 201.807861,81.421638 210.443298,84.430580 
	C209.730438,81.496895 208.989288,77.086281 207.070251,76.494354 
	C204.055344,75.564400 199.585068,76.187515 196.886536,77.936157 
	C184.096664,86.224014 177.840302,99.114716 174.164291,113.342026 
	C173.276215,116.779099 173.684555,120.674675 174.087982,124.293488 
	C174.723145,129.990692 181.843170,131.552277 188.025604,127.455818 
	C196.014343,122.162514 200.860992,114.170815 206.038544,105.650215 
M865.951965,93.492226 
	C867.613403,92.178474 869.092773,90.423080 870.975769,89.646431 
	C874.489380,88.197243 877.353088,84.482292 882.163940,86.758469 
	C883.502258,87.391670 886.119385,85.681152 887.948853,84.679001 
	C888.440430,84.409706 888.577087,82.104607 888.221863,81.906136 
	C886.172363,80.761154 883.508118,78.720360 881.824402,79.285179 
	C876.418945,81.098495 870.925110,83.296173 866.252197,86.495094 
	C859.030090,91.439133 852.458374,97.333305 844.998230,103.315758 
	C844.998230,99.937836 845.057373,96.954338 844.988037,93.973824 
	C844.676208,80.562737 844.372559,67.150993 843.918640,53.744457 
	C843.876526,52.501434 843.035156,51.029930 842.097168,50.181808 
	C841.636169,49.764984 839.620911,50.187244 839.155090,50.836651 
	C838.148987,52.239334 837.076904,54.045021 837.106812,55.666000 
	C837.277405,64.905998 837.569336,74.153412 838.197998,83.372536 
	C838.817932,92.464432 840.708130,101.544258 837.232483,110.496689 
	C836.987549,111.127487 837.469971,112.640015 837.999573,112.875511 
	C841.610901,114.481140 840.778137,117.613640 841.058044,120.517288 
	C841.559753,125.721306 842.370667,130.895493 843.133606,136.700958 
	C848.191589,134.593521 850.095032,132.640411 848.210144,128.387466 
	C847.324219,126.388458 847.239502,123.987274 847.030212,121.746056 
	C846.678528,117.979523 848.323914,117.529068 851.456238,119.078598 
	C858.398743,122.512993 865.388000,125.859993 872.436462,129.070862 
	C877.697876,131.467712 885.484863,130.182892 888.423157,126.029175 
	C885.218018,125.604416 882.238892,125.741478 879.674683,124.776260 
	C869.453247,120.928917 859.295715,116.890175 849.265564,112.571548 
	C846.645325,111.443382 845.853638,108.964218 848.758789,106.728874 
	C854.295471,102.468895 859.818726,98.191635 865.951965,93.492226 
M101.034126,101.841583 
	C101.688400,99.862640 102.394165,97.899010 102.988365,95.902191 
	C106.185623,85.157898 107.938431,73.832367 114.416092,64.370270 
	C116.249321,61.692413 116.443672,59.437176 114.132690,58.270309 
	C111.710724,57.047405 109.054123,58.108391 107.985947,61.368614 
	C105.648880,68.501671 102.864021,75.499092 100.783310,82.702469 
	C97.616798,93.664841 94.874886,104.750328 91.989296,115.793106 
	C90.943130,119.796654 90.002274,123.827721 88.864616,128.450684 
	C83.290031,114.934357 78.164429,102.031044 72.636734,89.302345 
	C69.824448,82.826424 66.373528,76.619370 63.041943,70.381226 
	C61.535290,67.560135 58.892551,67.189194 56.652596,69.207176 
	C54.669949,70.993355 54.124393,73.418053 56.889732,75.408424 
	C57.554874,75.887169 58.282948,76.474289 58.620144,77.183617 
	C64.122765,88.759109 69.681099,100.310486 74.984467,111.977486 
	C78.496552,119.703804 81.492264,127.665894 85.054367,135.367386 
	C85.646713,136.648102 88.399109,138.177109 89.378746,137.762268 
	C91.213585,136.985260 93.288208,135.110321 93.838608,133.266785 
	C95.722755,126.955917 97.004761,120.464195 98.484871,114.034195 
	C99.353935,110.258720 100.163231,106.469498 101.034126,101.841583 
M274.498718,104.989143 
	C275.434692,103.724403 276.370667,102.459671 277.981873,100.282509 
	C277.981873,107.032143 277.860626,112.357857 278.023132,117.674889 
	C278.137451,121.415268 278.730896,125.138741 278.936768,128.879318 
	C279.109070,132.010040 281.299683,132.811966 283.282867,131.666183 
	C284.666473,130.866806 285.742615,128.263748 285.685822,126.507423 
	C285.567383,122.843857 284.330841,119.228477 284.052246,115.555473 
	C283.516602,108.493294 283.407257,101.399788 282.960022,94.329468 
	C282.749146,90.996346 282.539673,87.585609 281.674194,84.387390 
	C279.804810,77.479408 273.862885,72.863045 265.828033,78.709206 
	C254.924988,86.642212 246.531372,96.842522 240.013458,108.529739 
	C237.647400,112.772293 236.010620,117.481377 234.510132,122.129021 
	C233.162735,126.302528 236.224716,131.615158 239.856567,131.961517 
	C245.910034,132.538773 251.216187,130.935425 256.330688,127.339272 
	C264.366760,121.688881 269.006836,113.536217 274.498718,104.989143 
M708.157898,128.004059 
	C701.793457,128.480423 696.142456,127.610222 691.534180,122.251915 
	C685.921021,115.725090 686.407776,108.637947 687.916992,101.059364 
	C690.203369,89.578728 693.047913,78.336243 700.997498,69.248886 
	C705.505615,64.095581 710.267822,62.088497 714.040833,69.765350 
	C715.016357,71.750237 714.468201,74.467667 714.702087,76.840508 
	C714.810974,77.945709 715.116028,79.031578 715.332092,80.126213 
	C715.909607,80.149765 716.487122,80.173317 717.064636,80.196869 
	C717.924377,77.390465 719.346863,74.618286 719.520020,71.770142 
	C719.826599,66.727531 718.082703,62.202587 713.631897,59.267841 
	C709.819519,56.754124 706.030457,57.969563 702.674866,60.196232 
	C700.449768,61.672691 698.425842,63.640656 696.762878,65.745003 
	C686.039917,79.313377 681.128845,94.908348 680.998962,112.103264 
	C680.893433,126.075989 690.890137,133.170975 702.339539,133.923050 
	C716.386108,134.845764 725.835510,126.425217 734.428284,116.895164 
	C735.919067,115.241676 736.258301,112.549866 737.129456,110.337669 
	C736.693970,109.978027 736.258423,109.618378 735.822937,109.258728 
	C728.357117,117.727676 720.289551,125.280754 708.157898,128.004059 
M625.523071,124.973289 
	C633.633118,116.184479 636.981079,108.493530 634.837402,102.520462 
	C632.101807,106.861984 629.490173,110.861786 627.028381,114.951744 
	C624.176086,119.690338 620.532349,123.377510 614.922791,124.581627 
	C609.465820,125.752991 601.536377,125.575760 599.717285,118.022621 
	C598.741882,113.972427 599.091064,109.518120 599.371277,105.281136 
	C599.552124,102.545906 601.216003,101.427773 604.469238,100.753853 
	C613.504761,98.882133 622.380066,96.010391 628.818726,88.654221 
	C632.326294,84.646820 631.543823,78.660561 627.032593,77.123703 
	C621.681763,75.300827 616.334290,75.230881 611.076477,78.311966 
	C599.769287,84.938065 593.950684,95.190269 592.209290,107.628433 
	C591.349365,113.770721 590.799133,120.440147 595.432678,125.989594 
	C602.020752,133.879929 616.244324,134.671768 625.523071,124.973289 
M166.991440,105.418266 
	C166.643478,104.626724 166.295517,103.835190 165.947556,103.043655 
	C165.062302,103.791710 163.977539,104.397247 163.324615,105.311264 
	C159.492264,110.676170 156.380508,116.712769 151.854874,121.389938 
	C144.436783,129.056458 131.990967,125.777565 129.458282,115.821564 
	C128.678680,112.756989 129.088196,109.265831 129.531967,106.049866 
	C129.955536,102.980331 131.763306,101.625534 135.311951,100.751389 
	C143.788696,98.663315 152.546463,96.339409 158.460510,89.067833 
	C159.999664,87.175362 161.977615,83.998688 161.336411,82.354927 
	C160.351089,79.829033 157.588211,77.201012 154.998566,76.315384 
	C152.291901,75.389771 148.731995,75.912743 145.832275,76.771843 
	C129.824631,81.514374 121.115814,101.389999 122.097527,115.709740 
	C122.279068,118.357765 122.951332,121.166748 124.151321,123.516235 
	C129.022354,133.053467 142.765503,134.626205 152.287720,128.144394 
	C160.067078,122.848961 163.522705,114.509430 166.991440,105.418266 
M304.017578,105.318367 
	C303.677002,97.392868 303.456909,89.458786 302.892731,81.549240 
	C302.781738,79.993362 301.342621,78.532219 300.516022,77.027390 
	C299.014130,78.640587 296.471313,80.116028 296.235657,81.896797 
	C295.798889,85.197021 296.655579,88.682487 297.071259,92.078865 
	C298.358337,102.595078 299.621887,113.115257 301.071777,123.609421 
	C301.326416,125.452515 302.436615,127.177406 303.151703,128.956879 
	C304.875946,127.712410 307.359985,126.837616 308.179596,125.153000 
	C310.486511,120.411522 311.819427,115.200615 314.068817,110.425636 
	C317.415253,103.321999 321.128754,96.384171 324.917236,89.503098 
	C325.537048,88.377365 327.344635,87.905594 328.603241,87.131561 
	C329.066223,87.954361 329.923462,88.773285 329.931610,89.600563 
	C330.018677,98.430763 330.133423,107.266487 329.905548,116.092033 
	C329.745148,122.302536 329.068634,128.499710 328.624542,134.675537 
	C335.986450,135.227219 335.989990,135.227219 335.994537,129.036346 
	C335.998596,123.537430 336.225891,118.026428 335.940460,112.542313 
	C335.463318,103.373543 334.728394,94.215446 333.904572,85.070633 
	C333.790131,83.800308 332.815186,82.303894 331.785278,81.476204 
	C328.605865,78.921066 323.981354,80.354042 321.168915,85.802345 
	C315.947083,95.918198 311.422699,106.394081 306.022675,117.975182 
	C305.264954,113.538597 304.643402,109.899452 304.017578,105.318367 
M477.119324,84.318726 
	C479.126556,81.230194 477.398712,79.470612 474.667236,80.203743 
	C471.730804,80.991898 468.105804,82.686890 466.697876,85.103035 
	C460.249146,96.169930 455.700073,108.055374 457.167969,121.173897 
	C457.671234,125.671646 460.191254,129.623016 465.329590,131.114044 
	C476.623413,134.391281 485.491821,130.891098 493.062866,122.171844 
	C499.305389,114.982605 500.922546,105.670631 495.830322,98.683327 
	C492.688202,94.371925 489.448181,89.947716 485.414001,86.577293 
	C484.119507,85.495773 480.144684,87.622345 477.396118,88.281204 
	C477.904724,89.650085 478.051270,91.384712 478.992523,92.316528 
	C481.426361,94.725945 484.118683,96.905647 486.877380,98.947983 
	C490.804382,101.855263 493.229919,106.916389 491.830658,111.270149 
	C489.514343,118.477409 484.642609,123.817223 477.335571,125.694778 
	C470.941650,127.337708 464.531799,125.601021 464.055267,119.537209 
	C463.004028,106.160233 467.765961,94.753143 477.119324,84.318726 
M814.829285,86.359123 
	C811.430725,85.308922 807.953796,86.178665 806.888184,89.176041 
	C806.426697,90.474045 809.962830,93.214615 811.727234,95.261925 
	C812.025269,95.607788 812.643738,95.674080 812.950928,96.016113 
	C815.644531,99.015701 819.697754,101.644806 820.710144,105.146339 
	C823.917358,116.239449 809.877747,129.192902 798.737732,125.738823 
	C796.531982,125.054909 793.670837,122.754112 793.274048,120.767159 
	C792.520203,116.992691 792.950256,112.846375 793.562500,108.960663 
	C795.200073,98.567375 801.158997,90.187843 807.163330,81.945404 
	C803.097900,78.837120 798.884827,79.570854 796.208374,84.703171 
	C792.980713,90.892624 790.176819,97.417168 788.168518,104.091248 
	C786.646912,109.147820 786.292297,114.651695 786.086060,119.982338 
	C785.855713,125.935120 791.546997,131.415512 797.421021,132.026382 
	C807.578430,133.082687 816.479431,130.121185 822.212402,121.815750 
	C829.427246,111.363602 831.359863,106.042160 821.566711,95.038513 
	C819.291321,92.481804 817.193115,89.767311 814.829285,86.359123 
M752.335754,80.172112 
	C749.895447,83.209396 747.034973,86.002129 745.097046,89.331818 
	C740.137085,97.854073 738.134521,107.261024 737.403381,117.066063 
	C736.979980,122.743111 740.548706,129.532928 746.255310,131.012283 
	C758.509827,134.189148 766.072205,131.105820 774.597168,120.690186 
	C781.162842,112.668259 780.962952,100.709053 772.945251,95.218628 
	C770.037598,93.227501 768.125488,89.782730 765.759094,87.001213 
	C765.236389,86.016006 763.809875,85.693077 762.629883,86.094528 
	C761.011658,86.645050 759.134705,87.445511 758.264282,88.740715 
	C757.852783,89.352921 759.241394,91.655006 760.306152,92.681107 
	C762.654175,94.943932 765.328064,96.866325 767.844177,98.957535 
	C772.668396,102.967110 774.109680,107.515274 771.942993,113.021584 
	C769.693420,118.738670 765.482605,122.643776 759.847473,125.054283 
	C755.279968,127.008102 750.329468,126.879745 746.986084,123.723373 
	C744.845825,121.702896 743.806274,117.198120 744.205322,114.052071 
	C745.431946,104.379364 748.505127,95.237038 754.899048,87.481171 
	C756.484863,85.557434 757.356262,83.044777 758.974915,80.020210 
	C756.076965,80.020210 754.600830,80.020210 752.335754,80.172112 
M893.422180,87.059547 
	C892.281738,89.142296 890.478882,91.120361 890.130005,93.328178 
	C889.227600,99.037933 891.460083,101.878853 898.382812,103.932449 
	C905.922913,106.169205 913.628479,107.844810 921.186462,110.026474 
	C926.436829,111.542076 930.240723,117.703911 923.838928,122.684761 
	C918.113647,127.139275 911.749329,129.352798 904.758972,128.968979 
	C903.910950,127.394379 903.207336,126.087952 902.192810,124.204269 
	C899.262024,126.976410 896.876160,129.233093 893.927002,132.022644 
	C896.080261,133.365723 897.321411,134.755661 898.687500,134.891907 
	C907.477051,135.768524 916.225586,135.026505 923.455750,129.614029 
	C927.211426,126.802521 930.474915,122.691833 932.578613,118.477989 
	C935.197998,113.231239 930.840576,107.614754 922.721558,105.073318 
	C915.522644,102.819885 908.139099,101.161285 900.915466,98.980331 
	C895.663330,97.394615 894.935059,94.923347 897.951599,90.452255 
	C901.389648,85.356461 911.441467,81.509903 917.428467,82.684105 
	C918.761108,82.945465 920.702332,82.373627 921.687683,81.458153 
	C922.562439,80.645424 923.217957,78.178810 922.690308,77.590599 
	C921.790100,76.587082 919.898560,76.106728 918.403870,76.062111 
	C908.671814,75.771591 901.223083,80.959732 893.422180,87.059547 
z"/>
<path fill="#FFFFFF" opacity="1.000000" stroke="none" 
	d="
M434.006012,49.981518 
	C434.141693,46.705227 433.897125,43.807030 434.577850,41.145493 
	C434.903748,39.871243 436.982574,39.045334 438.267487,38.016373 
	C439.175049,39.331474 440.863953,40.651340 440.855988,41.960850 
	C440.819855,47.879078 440.399628,53.801895 439.935730,59.708767 
	C439.384857,66.723671 438.605438,73.720337 438.004669,80.731728 
	C437.517548,86.416718 437.148102,92.111794 436.695557,98.219742 
	C439.069458,97.695084 440.743164,96.832031 442.165466,97.137917 
	C443.873688,97.505310 445.367767,98.868286 446.954590,99.800186 
	C445.856323,100.885216 444.763641,101.975983 443.655273,103.050613 
	C443.425232,103.273666 443.164185,103.527000 442.871979,103.614487 
	C435.606750,105.789528 435.285126,106.558441 434.927856,114.319351 
	C434.567108,122.156494 433.795105,129.984619 432.855042,137.774658 
	C432.712006,138.959885 430.468079,140.934250 429.580048,140.744629 
	C428.219727,140.454163 426.449249,138.741684 426.190277,137.378662 
	C425.743683,135.027832 426.205048,132.467377 426.496979,130.020126 
	C427.478088,121.795219 428.552582,113.581451 429.586975,105.398178 
	C418.604858,106.455254 408.565155,107.421616 397.575989,108.479362 
	C397.384735,119.123123 397.156067,129.977325 397.007721,140.832626 
	C396.923157,147.021942 396.975220,147.029144 389.646851,146.811157 
	C390.464142,134.366455 391.280090,121.942291 392.114471,109.237366 
	C387.538879,109.505096 383.364563,109.820343 379.184326,109.969688 
	C376.260925,110.074127 373.057800,109.715576 373.135437,105.948906 
	C373.210632,102.300995 376.353882,101.862755 379.284180,102.032402 
	C382.367737,102.210922 385.444397,102.877655 388.510620,102.800034 
	C389.691345,102.770149 391.511597,101.493088 391.857941,100.407120 
	C392.634277,97.972977 392.932617,95.305191 392.959900,92.727615 
	C393.070953,82.234680 392.974365,71.739716 393.031036,61.245914 
	C393.043915,58.860039 392.853546,56.211575 396.451294,55.983303 
	C399.946777,55.761528 400.069794,57.948017 400.021027,60.504452 
	C399.935364,64.997940 400.099609,69.498947 399.920929,73.987328 
	C399.554657,83.187515 399.030731,92.381432 398.525085,102.512268 
	C409.612549,101.340660 419.728790,100.271675 429.896729,99.197235 
	C431.307526,82.462967 432.656677,66.459892 434.006012,49.981518 
z"/>
<path fill="#FFFFFF" opacity="1.000000" stroke="none" 
	d="
M549.987793,101.679901 
	C549.569092,105.003090 549.152222,107.860794 548.735352,110.718498 
	C549.219849,110.892387 549.704407,111.066277 550.188904,111.240173 
	C550.790161,109.965012 551.483521,108.724434 551.977722,107.409042 
	C555.004211,99.354210 557.657104,91.134476 561.183594,83.307137 
	C562.230957,80.982376 565.806213,78.260994 568.013428,78.431801 
	C570.164001,78.598236 572.492615,81.962822 573.964844,84.394440 
	C578.919861,92.578644 577.862671,102.054726 578.855042,111.022911 
	C579.567993,117.465324 579.126282,124.054474 578.882202,130.566269 
	C578.838440,131.733109 577.247253,132.841949 576.370544,133.977570 
	C575.249146,132.713943 573.199951,131.481384 573.156372,130.181656 
	C572.866394,121.524910 573.504028,112.815170 572.836792,104.200378 
	C572.357056,98.007202 570.356506,91.926399 568.932617,85.819206 
	C568.769653,85.120110 567.950378,84.574020 566.362183,82.671158 
	C563.337891,89.120689 560.203064,94.649422 558.107300,100.547386 
	C555.000671,109.290260 552.756653,118.337105 549.806641,127.141060 
	C549.380005,128.414551 547.116760,129.632233 545.613525,129.752579 
	C544.846558,129.813995 543.109131,127.374092 543.122864,126.078743 
	C543.260132,113.157326 543.706055,100.239517 543.964661,87.318687 
	C544.000122,85.547592 543.488708,83.765556 543.091248,81.030685 
	C535.794067,86.376915 533.799500,93.583374 531.134460,100.122192 
	C527.013733,110.232704 523.612122,120.638428 519.988831,130.948242 
	C518.845215,134.202377 517.056946,135.973175 512.860352,134.520996 
	C512.250366,122.761513 511.736450,110.763535 510.964020,98.782219 
	C510.532715,92.092445 509.494629,85.440407 509.115448,78.749519 
	C509.004761,76.796021 510.220154,74.767372 510.827728,72.773170 
	C511.582611,72.707405 512.337524,72.641640 513.092407,72.575874 
	C514.058655,75.264130 515.673462,77.903351 515.881104,80.648956 
	C516.884644,93.925209 517.509766,107.230064 518.968140,120.781845 
	C519.824280,118.171730 520.596680,115.530540 521.551147,112.956841 
	C525.782532,101.546150 528.865173,89.670494 535.863770,79.395935 
	C537.949463,76.333893 540.436035,73.076302 543.807068,74.371246 
	C546.158325,75.274460 548.330383,79.151093 548.780518,81.985680 
	C549.783203,88.300034 549.656250,94.793777 549.987793,101.679901 
z"/>
<path fill="#FFFFFF" opacity="1.000000" stroke="none" 
	d="
M205.995575,106.024307 
	C200.860992,114.170815 196.014343,122.162514 188.025604,127.455818 
	C181.843170,131.552277 174.723145,129.990692 174.087982,124.293488 
	C173.684555,120.674675 173.276215,116.779099 174.164291,113.342026 
	C177.840302,99.114716 184.096664,86.224014 196.886536,77.936157 
	C199.585068,76.187515 204.055344,75.564400 207.070251,76.494354 
	C208.989288,77.086281 209.730438,81.496895 210.443298,84.430580 
	C201.807861,81.421638 199.844147,81.853493 193.639801,88.920586 
	C187.824936,95.544044 183.023468,102.754074 180.860641,111.507797 
	C179.902969,115.383873 178.212189,119.839935 182.178207,122.108604 
	C183.803558,123.038353 188.290359,120.690285 190.423355,118.703667 
	C198.770462,110.929314 204.536407,101.273682 208.961395,90.815742 
	C210.088699,88.151482 210.690948,85.219734 212.111069,82.741295 
	C212.995392,81.197960 214.961670,80.274574 216.442383,79.072968 
	C217.291855,80.582336 218.565125,81.999008 218.918930,83.616776 
	C220.635468,91.465591 222.396378,99.324387 223.595490,107.262146 
	C225.463623,119.628700 228.561691,132.099915 223.933823,144.487640 
	C220.799469,152.877563 214.740936,159.041428 207.371994,163.857254 
	C204.473724,165.751358 201.223862,167.210022 197.964355,168.403214 
	C196.460770,168.953613 194.463104,168.688034 192.854218,168.222733 
	C191.840668,167.929611 190.584564,166.653641 190.456436,165.683899 
	C190.349640,164.875443 191.539459,163.519852 192.480835,163.019119 
	C195.313370,161.512527 198.388214,160.461426 201.220520,158.954437 
	C214.798630,151.729935 222.663467,138.529449 219.144958,122.014458 
	C217.286301,113.290329 216.371521,104.366447 214.957886,95.544403 
	C214.783752,94.457672 214.159607,93.443047 213.693344,92.267326 
	C211.116516,96.772385 208.577530,101.211304 205.995575,106.024307 
z"/>
<path fill="#FFFFFF" opacity="1.000000" stroke="none" 
	d="
M865.649780,93.706894 
	C859.818726,98.191635 854.295471,102.468895 848.758789,106.728874 
	C845.853638,108.964218 846.645325,111.443382 849.265564,112.571548 
	C859.295715,116.890175 869.453247,120.928917 879.674683,124.776260 
	C882.238892,125.741478 885.218018,125.604416 888.423157,126.029175 
	C885.484863,130.182892 877.697876,131.467712 872.436462,129.070862 
	C865.388000,125.859993 858.398743,122.512993 851.456238,119.078598 
	C848.323914,117.529068 846.678528,117.979523 847.030212,121.746056 
	C847.239502,123.987274 847.324219,126.388458 848.210144,128.387466 
	C850.095032,132.640411 848.191589,134.593521 843.133606,136.700958 
	C842.370667,130.895493 841.559753,125.721306 841.058044,120.517288 
	C840.778137,117.613640 841.610901,114.481140 837.999573,112.875511 
	C837.469971,112.640015 836.987549,111.127487 837.232483,110.496689 
	C840.708130,101.544258 838.817932,92.464432 838.197998,83.372536 
	C837.569336,74.153412 837.277405,64.905998 837.106812,55.666000 
	C837.076904,54.045021 838.148987,52.239334 839.155090,50.836651 
	C839.620911,50.187244 841.636169,49.764984 842.097168,50.181808 
	C843.035156,51.029930 843.876526,52.501434 843.918640,53.744457 
	C844.372559,67.150993 844.676208,80.562737 844.988037,93.973824 
	C845.057373,96.954338 844.998230,99.937836 844.998230,103.315758 
	C852.458374,97.333305 859.030090,91.439133 866.252197,86.495094 
	C870.925110,83.296173 876.418945,81.098495 881.824402,79.285179 
	C883.508118,78.720360 886.172363,80.761154 888.221863,81.906136 
	C888.577087,82.104607 888.440430,84.409706 887.948853,84.679001 
	C886.119385,85.681152 883.502258,87.391670 882.163940,86.758469 
	C877.353088,84.482292 874.489380,88.197243 870.975769,89.646431 
	C869.092773,90.423080 867.613403,92.178474 865.649780,93.706894 
z"/>
<path fill="#FFFFFF" opacity="1.000000" stroke="none" 
	d="
M101.016769,102.264023 
	C100.163231,106.469498 99.353935,110.258720 98.484871,114.034195 
	C97.004761,120.464195 95.722755,126.955917 93.838608,133.266785 
	C93.288208,135.110321 91.213585,136.985260 89.378746,137.762268 
	C88.399109,138.177109 85.646713,136.648102 85.054367,135.367386 
	C81.492264,127.665894 78.496552,119.703804 74.984467,111.977486 
	C69.681099,100.310486 64.122765,88.759109 58.620144,77.183617 
	C58.282948,76.474289 57.554874,75.887169 56.889732,75.408424 
	C54.124393,73.418053 54.669949,70.993355 56.652596,69.207176 
	C58.892551,67.189194 61.535290,67.560135 63.041943,70.381226 
	C66.373528,76.619370 69.824448,82.826424 72.636734,89.302345 
	C78.164429,102.031044 83.290031,114.934357 88.864616,128.450684 
	C90.002274,123.827721 90.943130,119.796654 91.989296,115.793106 
	C94.874886,104.750328 97.616798,93.664841 100.783310,82.702469 
	C102.864021,75.499092 105.648880,68.501671 107.985947,61.368614 
	C109.054123,58.108391 111.710724,57.047405 114.132690,58.270309 
	C116.443672,59.437176 116.249321,61.692413 114.416092,64.370270 
	C107.938431,73.832367 106.185623,85.157898 102.988365,95.902191 
	C102.394165,97.899010 101.688400,99.862640 101.016769,102.264023 
z"/>
<path fill="#FFFFFF" opacity="1.000000" stroke="none" 
	d="
M274.268982,105.286736 
	C269.006836,113.536217 264.366760,121.688881 256.330688,127.339272 
	C251.216187,130.935425 245.910034,132.538773 239.856567,131.961517 
	C236.224716,131.615158 233.162735,126.302528 234.510132,122.129021 
	C236.010620,117.481377 237.647400,112.772293 240.013458,108.529739 
	C246.531372,96.842522 254.924988,86.642212 265.828033,78.709206 
	C273.862885,72.863045 279.804810,77.479408 281.674194,84.387390 
	C282.539673,87.585609 282.749146,90.996346 282.960022,94.329468 
	C283.407257,101.399788 283.516602,108.493294 284.052246,115.555473 
	C284.330841,119.228477 285.567383,122.843857 285.685822,126.507423 
	C285.742615,128.263748 284.666473,130.866806 283.282867,131.666183 
	C281.299683,132.811966 279.109070,132.010040 278.936768,128.879318 
	C278.730896,125.138741 278.137451,121.415268 278.023132,117.674889 
	C277.860626,112.357857 277.981873,107.032143 277.981873,100.282509 
	C276.370667,102.459671 275.434692,103.724403 274.268982,105.286736 
M263.044586,113.435768 
	C267.382416,105.950584 271.700043,98.453590 276.067688,90.985840 
	C277.892029,87.866615 276.996399,85.186775 274.464142,83.204582 
	C271.581482,80.948097 269.212585,82.677307 266.762756,84.646561 
	C257.384521,92.185188 250.503159,101.762054 244.653778,112.054947 
	C242.908463,115.126114 242.601120,119.117958 242.150772,122.751884 
	C242.031952,123.710670 243.961182,125.907814 244.732147,125.810509 
	C247.192596,125.499969 249.934341,124.894676 251.866852,123.459686 
	C255.678436,120.629410 259.019592,117.165581 263.044586,113.435768 
z"/>
<path fill="#FFFFFF" opacity="1.000000" stroke="none" 
	d="
M708.601929,128.001999 
	C720.289551,125.280754 728.357117,117.727676 735.822937,109.258728 
	C736.258423,109.618378 736.693970,109.978027 737.129456,110.337669 
	C736.258301,112.549866 735.919067,115.241676 734.428284,116.895164 
	C725.835510,126.425217 716.386108,134.845764 702.339539,133.923050 
	C690.890137,133.170975 680.893433,126.075989 680.998962,112.103264 
	C681.128845,94.908348 686.039917,79.313377 696.762878,65.745003 
	C698.425842,63.640656 700.449768,61.672691 702.674866,60.196232 
	C706.030457,57.969563 709.819519,56.754124 713.631897,59.267841 
	C718.082703,62.202587 719.826599,66.727531 719.520020,71.770142 
	C719.346863,74.618286 717.924377,77.390465 717.064636,80.196869 
	C716.487122,80.173317 715.909607,80.149765 715.332092,80.126213 
	C715.116028,79.031578 714.810974,77.945709 714.702087,76.840508 
	C714.468201,74.467667 715.016357,71.750237 714.040833,69.765350 
	C710.267822,62.088497 705.505615,64.095581 700.997498,69.248886 
	C693.047913,78.336243 690.203369,89.578728 687.916992,101.059364 
	C686.407776,108.637947 685.921021,115.725090 691.534180,122.251915 
	C696.142456,127.610222 701.793457,128.480423 708.601929,128.001999 
z"/>
<path fill="#FFFFFF" opacity="1.000000" stroke="none" 
	d="
M625.257629,125.234764 
	C616.244324,134.671768 602.020752,133.879929 595.432678,125.989594 
	C590.799133,120.440147 591.349365,113.770721 592.209290,107.628433 
	C593.950684,95.190269 599.769287,84.938065 611.076477,78.311966 
	C616.334290,75.230881 621.681763,75.300827 627.032593,77.123703 
	C631.543823,78.660561 632.326294,84.646820 628.818726,88.654221 
	C622.380066,96.010391 613.504761,98.882133 604.469238,100.753853 
	C601.216003,101.427773 599.552124,102.545906 599.371277,105.281136 
	C599.091064,109.518120 598.741882,113.972427 599.717285,118.022621 
	C601.536377,125.575760 609.465820,125.752991 614.922791,124.581627 
	C620.532349,123.377510 624.176086,119.690338 627.028381,114.951744 
	C629.490173,110.861786 632.101807,106.861984 634.837402,102.520462 
	C636.981079,108.493530 633.633118,116.184479 625.257629,125.234764 
M608.880310,95.643715 
	C614.504333,92.008347 622.067505,90.968498 625.113342,83.864784 
	C618.484497,75.655823 604.687500,86.057571 601.380737,97.163620 
	C603.744507,96.744110 605.943909,96.353767 608.880310,95.643715 
z"/>
<path fill="#FFFFFF" opacity="1.000000" stroke="none" 
	d="
M166.985962,105.828590 
	C163.522705,114.509430 160.067078,122.848961 152.287720,128.144394 
	C142.765503,134.626205 129.022354,133.053467 124.151321,123.516235 
	C122.951332,121.166748 122.279068,118.357765 122.097527,115.709740 
	C121.115814,101.389999 129.824631,81.514374 145.832275,76.771843 
	C148.731995,75.912743 152.291901,75.389771 154.998566,76.315384 
	C157.588211,77.201012 160.351089,79.829033 161.336411,82.354927 
	C161.977615,83.998688 159.999664,87.175362 158.460510,89.067833 
	C152.546463,96.339409 143.788696,98.663315 135.311951,100.751389 
	C131.763306,101.625534 129.955536,102.980331 129.531967,106.049866 
	C129.088196,109.265831 128.678680,112.756989 129.458282,115.821564 
	C131.990967,125.777565 144.436783,129.056458 151.854874,121.389938 
	C156.380508,116.712769 159.492264,110.676170 163.324615,105.311264 
	C163.977539,104.397247 165.062302,103.791710 165.947556,103.043655 
	C166.295517,103.835190 166.643478,104.626724 166.985962,105.828590 
M152.742508,81.235596 
	C142.985306,80.503235 135.003143,86.656891 132.129349,98.591637 
	C139.988815,94.632523 146.937225,91.428741 153.526840,87.606422 
	C155.193542,86.639648 156.229736,83.671188 152.742508,81.235596 
z"/>
<path fill="#FFFFFF" opacity="1.000000" stroke="none" 
	d="
M304.019714,105.789337 
	C304.643402,109.899452 305.264954,113.538597 306.022675,117.975182 
	C311.422699,106.394081 315.947083,95.918198 321.168915,85.802345 
	C323.981354,80.354042 328.605865,78.921066 331.785278,81.476204 
	C332.815186,82.303894 333.790131,83.800308 333.904572,85.070633 
	C334.728394,94.215446 335.463318,103.373543 335.940460,112.542313 
	C336.225891,118.026428 335.998596,123.537430 335.994537,129.036346 
	C335.989990,135.227219 335.986450,135.227219 328.624542,134.675537 
	C329.068634,128.499710 329.745148,122.302536 329.905548,116.092033 
	C330.133423,107.266487 330.018677,98.430763 329.931610,89.600563 
	C329.923462,88.773285 329.066223,87.954361 328.603241,87.131561 
	C327.344635,87.905594 325.537048,88.377365 324.917236,89.503098 
	C321.128754,96.384171 317.415253,103.321999 314.068817,110.425636 
	C311.819427,115.200615 310.486511,120.411522 308.179596,125.153000 
	C307.359985,126.837616 304.875946,127.712410 303.151703,128.956879 
	C302.436615,127.177406 301.326416,125.452515 301.071777,123.609421 
	C299.621887,113.115257 298.358337,102.595078 297.071259,92.078865 
	C296.655579,88.682487 295.798889,85.197021 296.235657,81.896797 
	C296.471313,80.116028 299.014130,78.640587 300.516022,77.027390 
	C301.342621,78.532219 302.781738,79.993362 302.892731,81.549240 
	C303.456909,89.458786 303.677002,97.392868 304.019714,105.789337 
z"/>
<path fill="#FFFFFF" opacity="1.000000" stroke="none" 
	d="
M476.872925,84.610458 
	C467.765961,94.753143 463.004028,106.160233 464.055267,119.537209 
	C464.531799,125.601021 470.941650,127.337708 477.335571,125.694778 
	C484.642609,123.817223 489.514343,118.477409 491.830658,111.270149 
	C493.229919,106.916389 490.804382,101.855263 486.877380,98.947983 
	C484.118683,96.905647 481.426361,94.725945 478.992523,92.316528 
	C478.051270,91.384712 477.904724,89.650085 477.396118,88.281204 
	C480.144684,87.622345 484.119507,85.495773 485.414001,86.577293 
	C489.448181,89.947716 492.688202,94.371925 495.830322,98.683327 
	C500.922546,105.670631 499.305389,114.982605 493.062866,122.171844 
	C485.491821,130.891098 476.623413,134.391281 465.329590,131.114044 
	C460.191254,129.623016 457.671234,125.671646 457.167969,121.173897 
	C455.700073,108.055374 460.249146,96.169930 466.697876,85.103035 
	C468.105804,82.686890 471.730804,80.991898 474.667236,80.203743 
	C477.398712,79.470612 479.126556,81.230194 476.872925,84.610458 
z"/>
<path fill="#FFFFFF" opacity="1.000000" stroke="none" 
	d="
M814.921326,86.742294 
	C817.193115,89.767311 819.291321,92.481804 821.566711,95.038513 
	C831.359863,106.042160 829.427246,111.363602 822.212402,121.815750 
	C816.479431,130.121185 807.578430,133.082687 797.421021,132.026382 
	C791.546997,131.415512 785.855713,125.935120 786.086060,119.982338 
	C786.292297,114.651695 786.646912,109.147820 788.168518,104.091248 
	C790.176819,97.417168 792.980713,90.892624 796.208374,84.703171 
	C798.884827,79.570854 803.097900,78.837120 807.163330,81.945404 
	C801.158997,90.187843 795.200073,98.567375 793.562500,108.960663 
	C792.950256,112.846375 792.520203,116.992691 793.274048,120.767159 
	C793.670837,122.754112 796.531982,125.054909 798.737732,125.738823 
	C809.877747,129.192902 823.917358,116.239449 820.710144,105.146339 
	C819.697754,101.644806 815.644531,99.015701 812.950928,96.016113 
	C812.643738,95.674080 812.025269,95.607788 811.727234,95.261925 
	C809.962830,93.214615 806.426697,90.474045 806.888184,89.176041 
	C807.953796,86.178665 811.430725,85.308922 814.921326,86.742294 
z"/>
<path fill="#FFFFFF" opacity="1.000000" stroke="none" 
	d="
M752.730225,80.096161 
	C754.600830,80.020210 756.076965,80.020210 758.974915,80.020210 
	C757.356262,83.044777 756.484863,85.557434 754.899048,87.481171 
	C748.505127,95.237038 745.431946,104.379364 744.205322,114.052071 
	C743.806274,117.198120 744.845825,121.702896 746.986084,123.723373 
	C750.329468,126.879745 755.279968,127.008102 759.847473,125.054283 
	C765.482605,122.643776 769.693420,118.738670 771.942993,113.021584 
	C774.109680,107.515274 772.668396,102.967110 767.844177,98.957535 
	C765.328064,96.866325 762.654175,94.943932 760.306152,92.681107 
	C759.241394,91.655006 757.852783,89.352921 758.264282,88.740715 
	C759.134705,87.445511 761.011658,86.645050 762.629883,86.094528 
	C763.809875,85.693077 765.236389,86.016006 765.759094,87.001213 
	C768.125488,89.782730 770.037598,93.227501 772.945251,95.218628 
	C780.962952,100.709053 781.162842,112.668259 774.597168,120.690186 
	C766.072205,131.105820 758.509827,134.189148 746.255310,131.012283 
	C740.548706,129.532928 736.979980,122.743111 737.403381,117.066063 
	C738.134521,107.261024 740.137085,97.854073 745.097046,89.331818 
	C747.034973,86.002129 749.895447,83.209396 752.730225,80.096161 
z"/>
<path fill="#FFFFFF" opacity="1.000000" stroke="none" 
	d="
M893.697815,86.803383 
	C901.223083,80.959732 908.671814,75.771591 918.403870,76.062111 
	C919.898560,76.106728 921.790100,76.587082 922.690308,77.590599 
	C923.217957,78.178810 922.562439,80.645424 921.687683,81.458153 
	C920.702332,82.373627 918.761108,82.945465 917.428467,82.684105 
	C911.441467,81.509903 901.389648,85.356461 897.951599,90.452255 
	C894.935059,94.923347 895.663330,97.394615 900.915466,98.980331 
	C908.139099,101.161285 915.522644,102.819885 922.721558,105.073318 
	C930.840576,107.614754 935.197998,113.231239 932.578613,118.477989 
	C930.474915,122.691833 927.211426,126.802521 923.455750,129.614029 
	C916.225586,135.026505 907.477051,135.768524 898.687500,134.891907 
	C897.321411,134.755661 896.080261,133.365723 893.927002,132.022644 
	C896.876160,129.233093 899.262024,126.976410 902.192810,124.204269 
	C903.207336,126.087952 903.910950,127.394379 904.758972,128.968979 
	C911.749329,129.352798 918.113647,127.139275 923.838928,122.684761 
	C930.240723,117.703911 926.436829,111.542076 921.186462,110.026474 
	C913.628479,107.844810 905.922913,106.169205 898.382812,103.932449 
	C891.460083,101.878853 889.227600,99.037933 890.130005,93.328178 
	C890.478882,91.120361 892.281738,89.142296 893.697815,86.803383 
z"/>
<path fill="transparent" opacity="1.000000" stroke="none" 
	d="
M262.799927,113.699768 
	C259.019592,117.165581 255.678436,120.629410 251.866852,123.459686 
	C249.934341,124.894676 247.192596,125.499969 244.732147,125.810509 
	C243.961182,125.907814 242.031952,123.710670 242.150772,122.751884 
	C242.601120,119.117958 242.908463,115.126114 244.653778,112.054947 
	C250.503159,101.762054 257.384521,92.185188 266.762756,84.646561 
	C269.212585,82.677307 271.581482,80.948097 274.464142,83.204582 
	C276.996399,85.186775 277.892029,87.866615 276.067688,90.985840 
	C271.700043,98.453590 267.382416,105.950584 262.799927,113.699768 
z"/>
<path fill="transparent" opacity="1.000000" stroke="none" 
	d="
M608.511841,95.803574 
	C605.943909,96.353767 603.744507,96.744110 601.380737,97.163620 
	C604.687500,86.057571 618.484497,75.655823 625.113342,83.864784 
	C622.067505,90.968498 614.504333,92.008347 608.511841,95.803574 
z"/>
<path fill="transparent" opacity="1.000000" stroke="none" 
	d="
M153.019272,81.545631 
	C156.229736,83.671188 155.193542,86.639648 153.526840,87.606422 
	C146.937225,91.428741 139.988815,94.632523 132.129349,98.591637 
	C135.003143,86.656891 142.985306,80.503235 153.019272,81.545631 
z"/>
</svg>